<svg width="64" height="64" viewBox="0 0 64 64" fill="none" xmlns="http://www.w3.org/2000/svg">
<path d="M44.0667 22.7333L54.4667 12.4C54.8667 12 55.3333 11.8 55.8667 11.8C56.4 11.8 56.8667 12 57.2667 12.4C57.6667 12.8 57.8667 13.2667 57.8667 13.8C57.8667 14.3333 57.6667 14.8 57.2667 15.2L45.5333 27C45.1333 27.4 44.6667 27.6 44.1333 27.6C43.6 27.6 43.1333 27.4 42.7333 27L36.4667 20.7333C36.0667 20.3333 35.8667 19.8667 35.8667 19.3333C35.8667 18.8 36.0667 18.3333 36.4667 17.9333C36.8667 17.5333 37.3333 17.3333 37.8667 17.3333C38.4 17.3333 38.8667 17.5333 39.2667 17.9333L44.0667 22.7333ZM7.33334 23.3333C6.75557 23.3333 6.27779 23.1444 5.90001 22.7667C5.52223 22.3889 5.33334 21.9111 5.33334 21.3333C5.33334 20.7555 5.52223 20.2778 5.90001 19.9C6.27779 19.5222 6.75557 19.3333 7.33334 19.3333H27.3333C27.9111 19.3333 28.3889 19.5222 28.7667 19.9C29.1445 20.2778 29.3333 20.7555 29.3333 21.3333C29.3333 21.9111 29.1445 22.3889 28.7667 22.7667C28.3889 23.1444 27.9111 23.3333 27.3333 23.3333H7.33334ZM45.3333 45.4667L39.2667 51.4667C38.8667 51.8222 38.4 52.0111 37.8667 52.0333C37.3333 52.0555 36.8667 51.8667 36.4667 51.4667C36.0667 51.0667 35.8667 50.6 35.8667 50.0667C35.8667 49.5333 36.0667 49.0667 36.4667 48.6667L42.5333 42.6667L36.4667 36.6667C36.0667 36.2667 35.8667 35.8 35.8667 35.2667C35.8667 34.7333 36.0667 34.2667 36.4667 33.8667C36.8667 33.4667 37.3333 33.2778 37.8667 33.3C38.4 33.3222 38.8667 33.5111 39.2667 33.8667L45.3333 39.8667L51.3333 33.8667C51.7333 33.4667 52.2 33.2667 52.7333 33.2667C53.2667 33.2667 53.7333 33.4667 54.1333 33.8667C54.5333 34.2667 54.7333 34.7333 54.7333 35.2667C54.7333 35.8 54.5333 36.2667 54.1333 36.6667L48.1333 42.6667L54.1333 48.6667C54.5333 49.0667 54.7333 49.5333 54.7333 50.0667C54.7333 50.6 54.5333 51.0667 54.1333 51.4667C53.7333 51.8667 53.2667 52.0667 52.7333 52.0667C52.2 52.0667 51.7333 51.8667 51.3333 51.4667L45.3333 45.4667ZM7.33334 44.6667C6.75557 44.6667 6.27779 44.4778 5.90001 44.1C5.52223 43.7222 5.33334 43.2444 5.33334 42.6667C5.33334 42.0889 5.52223 41.6111 5.90001 41.2333C6.27779 40.8555 6.75557 40.6667 7.33334 40.6667H27.3333C27.9111 40.6667 28.3889 40.8555 28.7667 41.2333C29.1445 41.6111 29.3333 42.0889 29.3333 42.6667C29.3333 43.2444 29.1445 43.7222 28.7667 44.1C28.3889 44.4778 27.9111 44.6667 27.3333 44.6667H7.33334Z" fill="#D8C9D5"/>
</svg>
