<svg width="64" height="64" viewBox="0 0 64 64" fill="none" xmlns="http://www.w3.org/2000/svg">
<g clip-path="url(#clip0_426_1435)">
<path d="M12.7203 45.6933C12.186 45.1591 11.7853 44.5541 11.5182 43.8784C11.251 43.2027 11.1175 42.5192 11.1175 41.8278L11.1175 26.9314C11.1175 25.9886 11.5339 25.0065 12.3667 23.9851C13.1995 22.9638 14.213 22.3588 15.4073 22.1702C16.6643 21.9817 17.7721 22.1152 18.7307 22.5709C19.6892 23.0266 20.3884 23.6316 20.8284 24.3858L23.6568 28.9113L39.0246 13.5435C40.3446 12.2236 41.9159 11.5636 43.7387 11.5636C45.5614 11.5636 47.1328 12.2236 48.4527 13.5435C49.7726 14.8635 50.4326 16.4348 50.4326 18.2576C50.4326 20.0803 49.7726 21.6517 48.4527 22.9716L40.3446 31.0798L41.5702 32.3054C41.7273 32.4626 41.8373 32.6354 41.9002 32.824C41.963 33.0125 42.0416 33.2168 42.1359 33.4368L45.7186 43.8077C46.1271 44.9076 46.1271 46.0233 45.7186 47.1547C45.31 48.286 44.6186 49.1817 43.6444 49.8417L31.6707 58.4212C30.6022 59.1755 29.4158 59.4819 28.1116 59.3405C26.8074 59.1991 25.6996 58.6727 24.7882 57.7613L12.7203 45.6933ZM15.1716 42.4878L28.418 55.7342L42.183 46.0233L37.8461 33.1068L35.2534 30.5141L45.6243 20.1432C46.19 19.5775 46.4728 18.949 46.4728 18.2576C46.4728 17.5662 46.19 16.9376 45.6243 16.372C45.0586 15.8063 44.4301 15.5234 43.7387 15.5234C43.0473 15.5234 42.4187 15.8063 41.8531 16.372L23.044 35.181L17.34 26.3657L15.1716 26.3657L15.1716 42.4878Z" fill="#D8C9D5"/>
<path d="M18 18L11.5 11.5M28 18L34 11.5M23 16V6" stroke="#D8C9D5" stroke-width="3" stroke-linecap="round"/>
</g>
<defs>
<clipPath id="clip0_426_1435">
<rect width="64" height="64" fill="#D8C9D5"/>
</clipPath>
</defs>
</svg>
