<svg width="64" height="64" viewBox="0 0 64 64" fill="none" xmlns="http://www.w3.org/2000/svg">
<g clip-path="url(#clip0_426_1431)">
<path d="M34.6667 64C29.8222 64 25.6445 62.7556 22.1333 60.2667C18.6222 57.7778 16.0889 54.4667 14.5333 50.3333L7.73334 32.5333C7.60001 32.1778 7.50001 31.8111 7.43334 31.4333C7.36668 31.0556 7.33334 30.6667 7.33334 30.2667C7.33334 29.1111 7.77779 28.0889 8.66668 27.2C9.55557 26.3111 10.5778 25.8667 11.7333 25.8667C12 25.8667 12.2556 25.8778 12.5 25.9C12.7445 25.9222 12.9778 25.9778 13.2 26.0667L15.2 26.6C16.0889 26.8222 16.7889 27.1222 17.3 27.5C17.8111 27.8778 18.3778 28.5556 19 29.5333V11C19 9.44444 19.5556 8.11111 20.6667 7C21.7778 5.88889 23.1111 5.33333 24.6667 5.33333C25.2 5.33333 25.6889 5.41111 26.1333 5.56667C26.5778 5.72222 26.9778 5.93333 27.3333 6.2V5.66667C27.3333 4.11111 27.9 2.77778 29.0333 1.66667C30.1667 0.555556 31.5111 0 33.0667 0C34.4889 0 35.7111 0.466667 36.7333 1.4C37.7556 2.33333 38.3778 3.42222 38.6 4.66667C38.7778 4.44444 39.1556 4.27778 39.7333 4.16667C40.3111 4.05556 40.8445 4 41.3333 4C43.0222 4 44.3889 4.63333 45.4333 5.9C46.4778 7.16667 47 8.57778 47 10.1333V12.7333C47.3111 12.4667 47.7111 12.2778 48.2 12.1667C48.6889 12.0556 49.1778 12 49.6667 12C51.2222 12 52.5556 12.5556 53.6667 13.6667C54.7778 14.7778 55.3333 16.1111 55.3333 17.6667V43.3333C55.3333 49.4222 53.4111 54.3889 49.5667 58.2333C45.7222 62.0778 40.7556 64 34.6667 64ZM34.6667 60C39.6445 60 43.6667 58.4556 46.7333 55.3667C49.8 52.2778 51.3333 48.2667 51.3333 43.3333V17.6667C51.3333 17.1778 51.1778 16.7778 50.8667 16.4667C50.5556 16.1556 50.1556 16 49.6667 16C49.1778 16 48.7778 16.1556 48.4667 16.4667C48.1556 16.7778 48 17.1778 48 17.6667V29.5333C48 30.2 47.7556 30.7778 47.2667 31.2667C46.7778 31.7556 46.2 32 45.5333 32C44.8222 32 44.2222 31.7556 43.7333 31.2667C43.2445 30.7778 43 30.1778 43 29.4667V9.66667C43 9.17778 42.8445 8.77778 42.5333 8.46667C42.2222 8.15556 41.8222 8 41.3333 8C40.8445 8 40.4445 8.15556 40.1333 8.46667C39.8222 8.77778 39.6667 9.17778 39.6667 9.66667V29.5333C39.6667 30.2 39.4222 30.7778 38.9333 31.2667C38.4445 31.7556 37.8667 32 37.2 32C36.4889 32 35.8889 31.7556 35.4 31.2667C34.9111 30.7778 34.6667 30.1778 34.6667 29.4667V5.66667C34.6667 5.17778 34.5111 4.77778 34.2 4.46667C33.8889 4.15556 33.4889 4 33 4C32.5111 4 32.1111 4.15556 31.8 4.46667C31.4889 4.77778 31.3333 5.17778 31.3333 5.66667V29.5333C31.3333 30.2 31.0889 30.7778 30.6 31.2667C30.1111 31.7556 29.5333 32 28.8667 32C28.1556 32 27.5556 31.7556 27.0667 31.2667C26.5778 30.7778 26.3333 30.1778 26.3333 29.4667V11C26.3333 10.5111 26.1778 10.1111 25.8667 9.8C25.5556 9.48889 25.1556 9.33333 24.6667 9.33333C24.1778 9.33333 23.7778 9.48889 23.4667 9.8C23.1556 10.1111 23 10.5111 23 11V37.3333C23 37.9111 22.8111 38.3889 22.4333 38.7667C22.0556 39.1444 21.5778 39.3333 21 39.3333H20.4667C20.0222 39.3333 19.6556 39.2222 19.3667 39C19.0778 38.7778 18.8445 38.4667 18.6667 38.0667L16.6667 33.0667C16.1778 31.9111 15.6 31.1667 14.9333 30.8333C14.2667 30.5 13.3778 30.2 12.2667 29.9333C11.8222 29.8444 11.5222 29.8889 11.3667 30.0667C11.2111 30.2444 11.2222 30.5333 11.4 30.9333L18.3333 48.9333C19.6222 52.2667 21.6445 54.9444 24.4 56.9667C27.1556 58.9889 30.5778 60 34.6667 60Z" fill="#D8C9D5"/>
</g>
<defs>
<clipPath id="clip0_426_1431">
<rect width="64" height="64" fill="#D8C9D5"/>
</clipPath>
</defs>
</svg>
