<svg width="64" height="64" viewBox="0 0 64 64" fill="none" xmlns="http://www.w3.org/2000/svg">
<path d="M14.6667 58.6667C13.5667 58.6667 12.625 58.275 11.8417 57.4917C11.0583 56.7083 10.6667 55.7667 10.6667 54.6667V25.7333C10.6667 24.6333 11.0583 23.6917 11.8417 22.9083C12.625 22.125 13.5667 21.7333 14.6667 21.7333H19.3333V15.3333C19.3333 11.8289 20.569 8.84166 23.0404 6.37166C25.5118 3.90166 28.5007 2.66666 32.0071 2.66666C35.5135 2.66666 38.5 3.90166 40.9667 6.37166C43.4333 8.84166 44.6667 11.8289 44.6667 15.3333V21.7333H49.3333C50.4333 21.7333 51.375 22.125 52.1583 22.9083C52.9417 23.6917 53.3333 24.6333 53.3333 25.7333V54.6667C53.3333 55.7667 52.9417 56.7083 52.1583 57.4917C51.375 58.275 50.4333 58.6667 49.3333 58.6667H14.6667ZM14.6667 54.6667H49.3333V25.7333H14.6667V54.6667ZM32.0112 45.3333C33.426 45.3333 34.6333 44.8437 35.6333 43.8646C36.6333 42.8854 37.1333 41.7083 37.1333 40.3333C37.1333 39 36.6296 37.7889 35.6221 36.7C34.6147 35.6111 33.4036 35.0667 31.9888 35.0667C30.574 35.0667 29.3667 35.6111 28.3667 36.7C27.3667 37.7889 26.8667 39.0111 26.8667 40.3667C26.8667 41.7222 27.3704 42.8889 28.3779 43.8667C29.3853 44.8444 30.5964 45.3333 32.0112 45.3333ZM23.3333 21.7333H40.6667V15.3333C40.6667 12.9259 39.8248 10.8796 38.1412 9.19446C36.4575 7.50926 34.4131 6.66666 32.0079 6.66666C29.6026 6.66666 27.5556 7.50926 25.8667 9.19446C24.1778 10.8796 23.3333 12.9259 23.3333 15.3333V21.7333Z" fill="#D8C9D5"/>
</svg>
