<svg width="100" height="100" viewBox="0 0 100 100" fill="none" xmlns="http://www.w3.org/2000/svg">
<path d="M48.4269 44.5278C48.4269 45.2867 49.0079 45.8981 49.7216 45.8981V45.9016C50.4386 45.9016 51.0162 45.2867 51.0162 44.5313V37.3703C51.0162 36.6114 50.4386 36 49.7216 36C49.0045 36 48.4269 36.6149 48.4269 37.3703V44.5278Z" fill="#D8C9D5"/>
<path d="M45.7313 47.5109C45.0176 47.5109 44.4367 46.8995 44.4367 46.1406V39.9283C44.4367 39.1729 45.0143 38.558 45.7313 38.558C46.4484 38.558 47.026 39.1694 47.026 39.9283V46.1406C47.026 46.896 46.4484 47.5109 45.7313 47.5109Z" fill="#D8C9D5"/>
<path d="M52.4171 46.1405C52.4171 46.8995 52.9981 47.5109 53.7118 47.5109V47.5144C54.4288 47.5144 55.0065 46.8995 55.0065 46.1441V39.4118C55.0065 38.6528 54.4288 38.0415 53.7118 38.0415C52.9947 38.0415 52.4171 38.6564 52.4171 39.4118V46.1405Z" fill="#D8C9D5"/>
<path d="M57.7053 49.0358C56.9916 49.0358 56.4107 48.4245 56.4107 47.6655V43.1363C56.4107 42.3809 56.9883 41.766 57.7053 41.766C58.4224 41.766 59 42.3774 59 43.1363V47.6655C59 48.4209 58.4224 49.0358 57.7053 49.0358Z" fill="#D8C9D5"/>
<path d="M41.5585 50.3148C41.7976 50.754 42.2324 51 42.6806 51C42.8997 51 43.1221 50.9403 43.3246 50.8173C43.9454 50.4413 44.1578 49.6015 43.7993 48.948L42.415 46.4111C42.0598 45.754 41.2664 45.5292 40.649 45.9086C40.0282 46.2846 39.8157 47.1244 40.1742 47.7779L41.5585 50.3148Z" fill="#D8C9D5"/>
<path fill-rule="evenodd" clip-rule="evenodd" d="M28 22C28 17.5817 31.5817 14 36 14H64C68.4183 14 72 17.5817 72 22V66C72 70.4183 68.4183 74 64 74H36C31.5817 74 28 70.4183 28 66V22ZM36 18H64C66.2091 18 68 19.7909 68 22V66C68 68.2091 66.2091 70 64 70H36C33.7909 70 32 68.2091 32 66V22C32 19.7909 33.7909 18 36 18Z" fill="#D8C9D5"/>
<path fill-rule="evenodd" clip-rule="evenodd" d="M78 98H22C20.8954 98 20 97.1046 20 96V88C20 84.6863 22.6863 82 26 82H74C77.3137 82 80 84.6863 80 88V96C80 97.1046 79.1046 98 78 98ZM26 86H74C75.1046 86 76 86.8954 76 88V94H60C60 90.6863 57.3137 88 54 88H46C42.6863 88 40 90.6863 40 94H24V88C24 86.8954 24.8954 86 26 86ZM54 92C55.1046 92 56 92.8954 56 94H44C44 92.8954 44.8954 92 46 92H54Z" fill="#D8C9D5"/>
</svg>
