<svg width="100" height="100" viewBox="0 0 100 100" fill="none" xmlns="http://www.w3.org/2000/svg">
<path d="M48.4269 44.5278C48.4269 45.2867 49.0078 45.8981 49.7216 45.8981V45.9016C50.4386 45.9016 51.0162 45.2867 51.0162 44.5313V37.3703C51.0162 36.6114 50.4386 36 49.7216 36C49.0045 36 48.4269 36.6149 48.4269 37.3703V44.5278Z" fill="white"/>
<path d="M45.7313 47.5109C45.0176 47.5109 44.4367 46.8995 44.4367 46.1406V39.9283C44.4367 39.1729 45.0143 38.558 45.7313 38.558C46.4484 38.558 47.026 39.1694 47.026 39.9283V46.1406C47.026 46.896 46.4484 47.5109 45.7313 47.5109Z" fill="white"/>
<path d="M52.4171 46.1405C52.4171 46.8995 52.9981 47.5109 53.7118 47.5109V47.5144C54.4288 47.5144 55.0065 46.8995 55.0065 46.1441V39.4118C55.0065 38.6528 54.4288 38.0415 53.7118 38.0415C52.9947 38.0415 52.4171 38.6564 52.4171 39.4118V46.1405Z" fill="white"/>
<path d="M57.7053 49.0358C56.9916 49.0358 56.4107 48.4245 56.4107 47.6655V43.1363C56.4107 42.3809 56.9883 41.766 57.7053 41.766C58.4224 41.766 59 42.3774 59 43.1363V47.6655C59 48.4209 58.4224 49.0358 57.7053 49.0358Z" fill="white"/>
<path d="M41.5585 50.3148C41.7976 50.754 42.2324 51 42.6806 51C42.8997 51 43.1221 50.9403 43.3246 50.8173C43.9454 50.4413 44.1578 49.6015 43.7993 48.948L42.415 46.4111C42.0598 45.754 41.2664 45.5292 40.649 45.9086C40.0282 46.2846 39.8157 47.1244 40.1742 47.7779L41.5585 50.3148Z" fill="white"/>
<path fill-rule="evenodd" clip-rule="evenodd" d="M28 22C28 17.5817 31.5817 14 36 14H64C68.4183 14 72 17.5817 72 22V66C72 70.4183 68.4183 74 64 74H36C31.5817 74 28 70.4183 28 66V22ZM32 22C32 19.7909 33.7909 18 36 18H64C66.2091 18 68 19.7909 68 22V66C68 68.2091 66.2091 70 64 70H36C33.7909 70 32 68.2091 32 66V22Z" fill="white"/>
<path fill-rule="evenodd" clip-rule="evenodd" d="M26 2C22.6863 2 20 4.68629 20 8V96C20 97.1046 20.8954 98 22 98H78C79.1046 98 80 97.1046 80 96V8C80 4.68629 77.3137 2 74 2H26ZM40 6L26 6C24.8954 6 24 6.89543 24 8V94H76V8C76 6.89543 75.1046 6 74 6H60C60 9.31371 57.3137 12 54 12H46C42.6863 12 40 9.31371 40 6ZM56 6L44 6C44 7.10457 44.8954 8 46 8L54 8C55.1046 8 56 7.10457 56 6Z" fill="white"/>
</svg>
