<svg class='w-20 h-20 mx-auto' viewBox="0 0 100 100" fill="none" xmlns="http://www.w3.org/2000/svg">
<g class='stroke-softFire'>
<path d="M46.4012 50.8648C46.4012 53.2617 48.3447 55.203 50.7393 55.203C53.1362 55.203 55.0774 53.2594 55.0774 50.8648V28.3373C55.0774 25.9404 53.1362 23.9992 50.7393 23.9992C48.3424 23.9992 46.4012 25.9404 46.4012 28.3373V50.8648Z" />
<path d="M33.1148 55.9353C33.1148 58.3322 35.0584 60.2734 37.4529 60.2734C39.8498 60.2734 41.791 58.3298 41.791 55.9353V36.3928C41.791 33.9959 39.8498 32.0547 37.4529 32.0547C35.056 32.0547 33.1148 33.9982 33.1148 36.3928V55.9353Z" />
<path d="M64.028 60.2734C61.6334 60.2734 59.6899 58.3322 59.6899 55.9353V34.7631C59.6899 32.3685 61.6311 30.425 64.028 30.425C66.4249 30.425 68.3661 32.3662 68.3661 34.7631V55.9353C68.3661 58.3298 66.4249 60.2734 64.028 60.2734Z" />
<path d="M72.9762 60.7337C72.9762 63.1306 74.9198 65.0718 77.3144 65.0718C79.7113 65.0718 81.6525 63.1283 81.6525 60.7337V46.4849C81.6525 44.088 79.7113 42.1467 77.3144 42.1467C74.9175 42.1467 72.9762 44.0903 72.9762 46.4849V60.7337Z" />
<path d="M27.2958 71.2512C25.7963 71.2512 24.3386 70.4724 23.5342 69.0822L18.9287 61.1057C17.7314 59.0319 18.4428 56.3793 20.5166 55.1797C22.5926 53.9847 25.2429 54.6938 26.4426 56.7676L31.048 64.744C32.2453 66.8178 31.5339 69.4704 29.4602 70.67C28.7767 71.0629 28.0304 71.2512 27.2958 71.2512Z" />
<path fill-rule="evenodd" clip-rule="evenodd" d="M100 50C100 77.6142 77.6142 100 50 100C22.3858 100 0 77.6142 0 50C0 22.3858 22.3858 0 50 0C77.6142 0 100 22.3858 100 50ZM96 50C96 75.4051 75.4051 96 50 96C24.5949 96 4 75.4051 4 50C4 24.5949 24.5949 4 50 4C75.4051 4 96 24.5949 96 50Z" />
</g>
</svg>
