<svg class='w-20 h-20 mx-auto' viewBox="0 0 100 100" fill="none" xmlns="http://www.w3.org/2000/svg">
<g class='fill-intelegentBlue'>
<path d="M76.4142 26.4142C77.1953 25.6332 77.1953 24.3668 76.4142 23.5858C75.6332 22.8047 74.3668 22.8047 73.5858 23.5858L50 47.1716L38.9142 36.0858C38.1332 35.3047 36.8668 35.3047 36.0858 36.0858C35.3047 36.8668 35.3047 38.1332 36.0858 38.9142L47.1716 50C48.7337 51.5621 51.2663 51.5621 52.8284 50L76.4142 26.4142Z" />
<path fill-rule="evenodd" clip-rule="evenodd" d="M100 50C100 77.6142 77.6142 100 50 100C22.3858 100 0 77.6142 0 50C0 22.3858 22.3858 0 50 0C77.6142 0 100 22.3858 100 50ZM96 50C96 75.4051 75.4051 96 50 96C24.5949 96 4 75.4051 4 50C4 24.5949 24.5949 4 50 4C75.4051 4 96 24.5949 96 50Z" />
</g>

</svg>
