<?xml version="1.0" standalone="no"?>
<!DOCTYPE svg PUBLIC "-//W3C//DTD SVG 20010904//EN"
 "http://www.w3.org/TR/2001/REC-SVG-20010904/DTD/svg10.dtd">
<svg version="1.0" xmlns="http://www.w3.org/2000/svg"
 width="260.000000pt" height="260.000000pt" viewBox="0 0 260.000000 260.000000"
 preserveAspectRatio="xMidYMid meet">
<metadata>
Created by potrace 1.14, written by Peter Selinger 2001-2017
</metadata>
<g transform="translate(0.000000,260.000000) scale(0.100000,-0.100000)"
fill="#000000" stroke="none">
<path d="M0 1300 l0 -1300 1300 0 1300 0 0 1300 0 1300 -1300 0 -1300 0 0
-1300z m1362 762 c56 -32 58 -48 58 -426 0 -384 -2 -399 -62 -436 -67 -41
-147 -17 -179 53 -17 39 -19 69 -19 372 0 188 4 345 10 366 24 85 111 117 192
71z m368 -177 c15 -8 38 -27 49 -41 20 -26 21 -37 21 -374 0 -344 0 -347 -23
-381 -13 -19 -39 -40 -61 -48 -52 -20 -111 0 -143 48 -23 34 -23 37 -23 373 0
374 1 381 63 418 38 24 78 25 117 5z m-760 -50 c58 -30 60 -42 60 -401 l0
-326 -33 -33 c-61 -61 -154 -53 -197 17 -20 32 -20 46 -18 361 l3 329 37 34
c30 27 46 34 78 34 23 0 54 -7 70 -15z m1158 -295 c56 -35 62 -63 62 -312 0
-193 -2 -228 -18 -257 -51 -101 -172 -101 -225 0 -16 30 -17 60 -15 269 3 211
5 238 22 263 39 57 114 73 174 37z m-1583 -358 c44 -27 195 -294 195 -344 0
-46 -47 -104 -94 -116 -38 -10 -91 0 -116 23 -30 27 -170 280 -176 316 -14 97
106 173 191 121z"/>
</g>
</svg>
