<svg width="512" height="512" viewBox="0 0 512 512" fill="none" xmlns="http://www.w3.org/2000/svg">
<g clip-path="url(#clip0_84_944)">
<path d="M256 512C397.385 512 512 397.385 512 256C512 114.615 397.385 0 256 0C114.615 0 0 114.615 0 256C0 397.385 114.615 512 256 512Z" fill="#2697C2"/>
<path fill-rule="evenodd" clip-rule="evenodd" d="M256.141 88C161.505 88 85 165 85 260.259C85 336.404 134.019 400.86 202.022 423.673C210.524 425.388 213.638 419.967 213.638 415.406C213.638 411.413 213.358 397.724 213.358 383.462C165.75 393.731 155.837 362.927 155.837 362.927C148.186 342.963 136.85 337.832 136.85 337.832C121.268 327.28 137.985 327.28 137.985 327.28C155.269 328.421 164.339 344.962 164.339 344.962C179.637 371.198 204.288 363.785 214.206 359.221C215.621 348.098 220.157 340.398 224.974 336.121C187.004 332.127 147.054 317.298 147.054 251.131C147.054 232.308 153.85 216.908 164.619 204.931C162.92 200.654 156.968 182.969 166.321 159.298C166.321 159.298 180.772 154.734 213.354 176.98C227.304 173.209 241.69 171.291 256.141 171.275C270.592 171.275 285.322 173.274 298.925 176.98C331.511 154.734 345.962 159.298 345.962 159.298C355.315 182.969 349.36 200.654 347.661 204.931C358.713 216.908 365.229 232.308 365.229 251.131C365.229 317.298 325.279 331.84 287.025 336.121C293.261 341.539 298.641 351.804 298.641 368.062C298.641 391.162 298.361 409.701 298.361 415.403C298.361 419.967 301.479 425.388 309.977 423.677C377.98 400.857 426.999 336.404 426.999 260.259C427.279 165 350.495 88 256.141 88Z" fill="white"/>
</g>
<defs>
<clipPath id="clip0_84_944">
<rect width="512" height="512" fill="white"/>
</clipPath>
</defs>
</svg>
