<?xml version="1.0" encoding="UTF-8"?><svg id="a" xmlns="http://www.w3.org/2000/svg" width="512" height="512" viewBox="0 0 512 512"><circle cx="256" cy="256" r="256" fill="#2697c2"/><path d="m394.38,198.69c-.65-14.79-3.04-24.95-6.47-33.76-3.53-9.34-8.97-17.71-16.09-24.67-6.96-7.07-15.38-12.56-24.62-16.03-8.86-3.43-18.97-5.82-33.75-6.47-14.89-.71-19.62-.87-57.4-.87s-42.5.16-57.34.81c-14.78.66-24.94,3.05-33.75,6.47-9.35,3.53-17.72,8.97-24.67,16.09-7.07,6.96-12.56,15.38-16.04,24.62-3.42,8.86-5.81,18.97-6.46,33.75-.71,14.9-.88,19.62-.88,57.4s.17,42.5.82,57.34c.65,14.78,3.04,24.94,6.47,33.75,3.53,9.35,9.02,17.72,16.09,24.68,6.95,7.06,15.38,12.55,24.62,16.03,8.86,3.42,18.97,5.81,33.75,6.47,14.84.65,19.57.81,57.34.81s42.5-.16,57.34-.81c14.78-.66,24.95-3.05,33.75-6.47,18.7-7.23,33.48-22.01,40.71-40.71,3.43-8.86,5.82-18.97,6.47-33.75.65-14.84.82-19.57.82-57.34s-.06-42.5-.71-57.34Zm-138.33,128.81c-39.45,0-71.47-32.01-71.47-71.47s32.02-71.47,71.47-71.47,71.48,32.01,71.48,71.47-32.02,71.47-71.48,71.47Zm74.3-129.08c-9.21,0-16.68-7.48-16.68-16.69s7.47-16.69,16.68-16.69,16.69,7.47,16.69,16.69-7.47,16.69-16.69,16.69Z" fill="#fff"/><path d="m302.42,256.03c0,25.6-20.77,46.36-46.37,46.36s-46.36-20.76-46.36-46.36,20.77-46.36,46.36-46.36,46.37,20.76,46.37,46.36Z" fill="#fff"/></svg>