<?xml version="1.0" encoding="UTF-8"?><svg id="a" xmlns="http://www.w3.org/2000/svg" width="512" height="512" viewBox="0 0 512 512"><circle cx="256" cy="256" r="256" fill="#2697c2"/><path d="m408.96,276.6v105.54h-61.19v-98.47c0-24.72-8.83-41.61-30.99-41.61-16.91,0-26.95,11.37-31.39,22.37-1.61,3.93-2.03,9.4-2.03,14.91v102.79h-61.2s.82-166.78,0-184.04h61.2v26.08c-.12.21-.3.41-.41.6h.41v-.6c8.13-12.51,22.63-30.4,55.15-30.4,40.26,0,70.44,26.3,70.44,82.82h0ZM158.15,109.39c-20.93,0-34.63,13.74-34.63,31.79s13.3,31.81,33.82,31.81h.4c21.34,0,34.61-14.14,34.61-31.81-.41-18.05-13.27-31.79-34.21-31.79h0Zm-30.99,272.76h61.17v-184.04h-61.17v184.04Z" fill="#fff"/></svg>