<?xml version="1.0" encoding="UTF-8"?><svg id="a" xmlns="http://www.w3.org/2000/svg" width="512" height="512" viewBox="0 0 512 512"><circle cx="256" cy="256" r="256" fill="#2697c2"/><path d="m283.3,228.68c-2.94-2.95-6.19-5.57-9.71-7.81-9.31-5.96-20.13-9.13-31.18-9.13-15.34-.03-30.06,6.07-40.89,16.93l-52.54,52.58c-10.81,10.83-16.89,25.51-16.9,40.81-.02,31.94,25.85,57.84,57.79,57.86,15.32.05,30.02-6.01,40.85-16.85l43.37-43.37c.79-.78,1.23-1.85,1.22-2.96-.01-2.28-1.87-4.12-4.15-4.11h-1.65c-9.06.03-18.04-1.71-26.43-5.12-1.55-.64-3.32-.28-4.5.91l-31.18,31.23c-9.68,9.68-25.38,9.68-35.07,0-9.68-9.68-9.68-25.38,0-35.07l52.75-52.7c9.68-9.66,25.35-9.66,35.03,0,6.52,6.14,16.69,6.14,23.21,0,2.81-2.81,4.51-6.53,4.79-10.49.3-4.73-1.44-9.36-4.79-12.72Z" fill="#fff"/><path d="m362.98,149c-22.58-22.58-59.2-22.58-81.78,0l-43.33,43.29c-1.19,1.2-1.53,2.99-.87,4.54.66,1.55,2.2,2.55,3.88,2.52h1.53c9.05-.02,18.02,1.74,26.39,5.16,1.55.64,3.32.28,4.5-.91l31.1-31.06c9.68-9.68,25.38-9.68,35.07,0,9.68,9.68,9.68,25.38,0,35.07l-38.74,38.7-.33.37-13.55,13.47c-9.68,9.66-25.35,9.66-35.03,0-6.52-6.14-16.69-6.14-23.21,0-2.82,2.83-4.53,6.59-4.79,10.57-.3,4.73,1.44,9.36,4.79,12.72,4.78,4.8,10.37,8.72,16.52,11.56.87.41,1.73.74,2.6,1.12.87.37,1.78.66,2.64.99.87.33,1.78.62,2.64.87l2.44.66c1.65.41,3.3.74,5,1.03,2.04.3,4.09.5,6.15.58h3.14l2.48-.29c.91-.04,1.86-.25,2.93-.25h1.4l2.85-.41,1.32-.25,2.4-.5h.45c10.15-2.55,19.41-7.8,26.81-15.2l52.58-52.58c22.58-22.58,22.58-59.2,0-81.78Z" fill="#fff"/></svg>