<?xml version="1.0" encoding="UTF-8"?><svg id="a" xmlns="http://www.w3.org/2000/svg" width="512" height="512" viewBox="0 0 512 512"><circle cx="256" cy="256" r="256" fill="#2697c2"/><path d="m183.62,161.7c51.73,0,93.65,42.22,93.65,94.3s-41.93,94.3-93.65,94.3-93.66-42.22-93.66-94.3,41.93-94.3,93.66-94.3Zm149.56,5.52c25.86,0,46.83,39.74,46.83,88.78h0c0,49.02-20.97,88.78-46.83,88.78s-46.83-39.75-46.83-88.78,20.96-88.78,46.83-88.78Zm72.39,9.25c9.09,0,16.47,35.61,16.47,79.53s-7.37,79.53-16.47,79.53-16.47-35.61-16.47-79.53,7.37-79.53,16.47-79.53Z" fill="#fff"/></svg>