<?xml version="1.0" encoding="UTF-8"?><svg id="a" xmlns="http://www.w3.org/2000/svg" width="512" height="512" viewBox="0 0 512 512"><circle cx="256" cy="256" r="256" fill="#2697c2"/><path d="m374.66,174.1c-3.85,40.48-20.52,138.71-29,184.05-3.59,19.19-10.66,25.62-17.5,26.25-11.77,1.08-21.3-5.71-31.91-13.27-2.78-1.99-5.65-4.03-8.64-6-11.76-7.71-20.85-13.9-29.97-20.1-8.34-5.69-16.71-11.38-27.16-18.27-21.76-14.34-12.65-23.12-.51-34.82,1.97-1.9,4.01-3.87,6.02-5.95.9-.93,5.28-5.01,11.46-10.75,19.82-18.43,58.11-54.03,59.08-58.15.16-.68.31-3.2-1.19-4.53s-3.71-.87-5.3-.51c-2.26.51-38.26,24.3-107.98,71.37-10.22,7.02-19.47,10.43-27.77,10.26-9.14-.2-26.72-5.17-39.79-9.42-1.92-.63-3.79-1.21-5.6-1.78-13.28-4.18-23.04-7.25-22.06-15.04.57-4.61,6.92-9.32,19.04-14.14,74.63-32.52,124.39-53.95,149.29-64.31,71.1-29.57,85.87-34.71,95.5-34.88,2.12-.03,6.85.49,9.92,2.98,2.59,2.1,3.3,4.94,3.64,6.93.34,1.99.77,6.53.43,10.08Z" fill="#fff" fill-rule="evenodd"/></svg>