<?xml version="1.0" encoding="UTF-8"?><svg id="a" xmlns="http://www.w3.org/2000/svg" width="512" height="512" viewBox="0 0 512 512"><circle cx="256" cy="256" r="256" fill="#2697c2"/><path d="m412.81,183.98c-10.97,4.86-22.77,8.15-35.15,9.62,12.64-7.57,22.33-19.55,26.91-33.85-11.82,7.01-24.93,12.1-38.86,14.84-11.16-11.89-27.07-19.32-44.68-19.32-33.79,0-61.19,27.4-61.19,61.19,0,4.8.54,9.46,1.59,13.95-50.86-2.55-95.95-26.91-126.13-63.94-5.27,9.04-8.29,19.55-8.29,30.77,0,21.22,10.81,39.96,27.22,50.93-10.03-.31-19.47-3.07-27.71-7.66,0,.26,0,.52,0,.78,0,29.65,21.1,54.38,49.09,60-5.13,1.41-10.55,2.15-16.12,2.15-3.95,0-7.78-.38-11.51-1.09,7.79,24.3,30.38,42,57.16,42.49-20.95,16.41-47.33,26.19-76,26.19-4.93,0-9.81-.29-14.59-.86,27.07,17.37,59.24,27.49,93.79,27.49,112.55,0,174.1-93.24,174.1-174.11,0-2.65-.06-5.29-.18-7.91,11.97-8.62,22.34-19.4,30.54-31.67h0Z" fill="#fff"/></svg>