<?xml version="1.0" encoding="UTF-8"?><svg id="a" xmlns="http://www.w3.org/2000/svg" width="512" height="512" viewBox="0 0 512 512"><circle cx="256" cy="256" r="256" fill="#2697c2"/><path d="m432.41,153.37l-70.51-.2c-.01,2.56-.02,5.63-.06,7.64,5.99.14,21.32,2.96,26.13,15.58l-67.54,155.89c-3.31-7.74-34.72-77.51-38.3-86.48l32.66-67.75c6.74-10.31,19.64-16.95,32.11-17.44l-.04-7.09-67.84-.06c-.16,1.8,0,5.57-.24,7.45,19.14.52,25.98,4.8,21.39,16.23-7.57,17.2-23.44,49.77-26.54,55.72-9.71-20.29-15.88-35.9-26.45-57.84-4.56-10.16,5.51-14.12,16.15-14.42v-7.13l-78.56-.24c.06,3.35-.08,5.22-.08,7.67,10.95.17,25.16,1.34,30.83,10.87,7.51,14.63,32.56,72.71,40.14,88.26-9.67,18.55-33.15,62.43-41.56,78.9-12.05-26.75-56.64-132.1-69.24-159.29-4.69-11.59,13.44-18.28,23.93-18.77l.07-7.73h-89.36c.02,2.32.1,6.15.1,7.87,14.49-.13,35.67,23.67,41.72,38.46,26.08,60.53,52.99,120.7,78.95,181.28,0,.1,8.12.21,8.21.03,16.98-34.75,36.83-71.28,54.75-106.43l45.21,106.48s7.5.06,7.54.03c28.67-65.51,71.62-166.04,85.67-197.78,5.72-13.56,15.28-21.83,30.76-22.3l.12-7.04-.1-.36Z" fill="#fff"/></svg>