<?xml version="1.0" encoding="UTF-8"?><svg id="a" xmlns="http://www.w3.org/2000/svg" width="512" height="512" viewBox="0 0 512 512"><circle cx="256" cy="256" r="256" fill="#2697c2"/><path d="m409.37,179.05c-3.69-13.7-14.5-24.51-28.2-28.2-25.04-6.85-125.18-6.85-125.18-6.85,0,0-100.14,0-125.18,6.59-13.44,3.69-24.51,14.76-28.2,28.46-6.59,25.04-6.59,76.95-6.59,76.95,0,0,0,52.18,6.59,76.95,3.69,13.7,14.5,24.51,28.2,28.2,25.3,6.85,125.18,6.85,125.18,6.85,0,0,100.14,0,125.18-6.59,13.7-3.69,24.51-14.49,28.2-28.2,6.59-25.04,6.59-76.95,6.59-76.95,0,0,.27-52.18-6.59-77.21Zm-185.26,124.91v-95.92l83.27,47.96-83.27,47.96Z" fill="#fff"/></svg>